<?xml version="1.0" encoding="utf-8"?>
<!-- Generator: Adobe Illustrator 26.3.1, SVG Export Plug-In . SVG Version: 6.00 Build 0)  -->
<svg version="1.1" id="Layer_1" xmlns="http://www.w3.org/2000/svg" xmlns:xlink="http://www.w3.org/1999/xlink" x="0px" y="0px"
	 viewBox="0 0 195 37" style="enable-background:new 0 0 195 37;" xml:space="preserve">
<style type="text/css">
	.st0{fill:#0F2137;}
	.st1{clip-path:url(#SVGID_00000051371332166404929630000007715685682525517968_);}
	.st2{fill:url(#SVGID_00000174570960416238174890000013280320701442305935_);}
	.st3{fill:url(#SVGID_00000137834639161612429800000002870757836550795648_);}
	.st4{fill:url(#SVGID_00000172408022246114396700000007931975995837334414_);}
	.st5{fill:url(#SVGID_00000051370827327157231810000002770285764156113590_);}
	.st6{fill:url(#SVGID_00000073694061643181318820000009778856988170696320_);}
	.st7{fill:url(#SVGID_00000080205513379796319520000011768089705873516720_);}
</style>
<path class="st0" d="M41.6,23h2.8c0.1,0.6,0.4,1,0.9,1.4c0.5,0.4,1.2,0.5,2,0.5c0.8,0,1.4-0.2,1.9-0.5c0.5-0.3,0.7-0.8,0.7-1.3
	c0-0.5-0.2-0.8-0.5-1.1c-0.4-0.3-1-0.5-1.8-0.7l-1.8-0.4C43.2,20.4,42,19.1,42,17c0-1.3,0.5-2.3,1.5-3.1c1-0.8,2.3-1.2,3.9-1.2
	c1.6,0,2.9,0.4,3.9,1.2c1,0.8,1.5,1.8,1.5,3.1H50c0-0.6-0.3-1.1-0.8-1.4c-0.5-0.3-1.1-0.5-1.8-0.5c-0.7,0-1.3,0.2-1.8,0.5
	c-0.4,0.3-0.7,0.7-0.7,1.3c0,0.4,0.2,0.8,0.5,1c0.4,0.3,1,0.5,1.8,0.7l1.7,0.4c1.4,0.3,2.4,0.8,3.1,1.4c0.6,0.6,1,1.5,1,2.6
	c0,1.4-0.5,2.5-1.5,3.3c-1,0.8-2.4,1.2-4.2,1.2c-1.7,0-3.1-0.4-4.1-1.1C42.2,25.3,41.7,24.3,41.6,23z M55.3,14.1h2.9v2.4h1.9v2.1
	h-1.9v5c0,0.8,0.4,1.2,1.2,1.2c0.3,0,0.5,0,0.7,0v2.1C59.8,27,59.3,27,58.7,27c-1.2,0-2.1-0.2-2.6-0.7c-0.5-0.4-0.8-1.2-0.8-2.2
	v-5.5h-1.5v-2.1h1.5V14.1z M65.6,25.1c0.6,0,1.2-0.2,1.6-0.5c0.4-0.4,0.7-0.8,0.7-1.4v-0.8l-2.2,0.1c-0.5,0-0.9,0.2-1.2,0.4
	c-0.3,0.2-0.4,0.5-0.4,0.9c0,0.4,0.1,0.7,0.4,0.9C64.7,25,65.1,25.1,65.6,25.1z M64.7,27.2c-1,0-1.8-0.3-2.5-0.9
	c-0.7-0.6-1-1.4-1-2.3c0-1,0.4-1.7,1.1-2.2c0.7-0.5,1.7-0.8,3-0.9l2.6-0.2V20c0-0.5-0.2-0.9-0.5-1.1c-0.3-0.3-0.7-0.4-1.3-0.4
	c-0.5,0-0.9,0.1-1.3,0.4c-0.3,0.2-0.5,0.6-0.6,0.9h-2.6c0.1-1,0.5-1.9,1.3-2.5c0.8-0.6,1.9-0.9,3.3-0.9c1.3,0,2.4,0.3,3.2,1
	c0.8,0.6,1.2,1.5,1.2,2.5V27h-2.8v-1.6h-0.1c-0.3,0.5-0.7,1-1.3,1.3C66,27,65.4,27.2,64.7,27.2z M72.5,27V16.5h2.8v1.9h0.1
	c0.2-0.7,0.5-1.2,0.9-1.5c0.4-0.4,1-0.5,1.6-0.5c0.3,0,0.6,0,0.8,0.1V19c-0.3-0.1-0.6-0.2-1-0.2c-0.7,0-1.2,0.2-1.6,0.6
	c-0.4,0.4-0.6,1-0.6,1.7V27H72.5z M80.6,14.1h2.9v2.4h1.9v2.1h-1.9v5c0,0.8,0.4,1.2,1.2,1.2c0.3,0,0.5,0,0.7,0v2.1
	C85,27,84.6,27,84,27c-1.2,0-2.1-0.2-2.6-0.7c-0.5-0.4-0.8-1.2-0.8-2.2v-5.5h-1.5v-2.1h1.5V14.1z M96.6,16.5V27h-2.8v-1.9h-0.1
	c-0.5,1.4-1.6,2.1-3.1,2.1c-1.1,0-2.1-0.3-2.7-1c-0.7-0.7-1-1.7-1-2.9v-6.7h2.9v6.2c0,0.7,0.2,1.2,0.5,1.6c0.3,0.4,0.8,0.5,1.5,0.5
	s1.1-0.2,1.5-0.6c0.4-0.4,0.6-1,0.6-1.7v-6H96.6z M104.6,16.4c1.3,0,2.4,0.5,3.1,1.4c0.8,1,1.2,2.3,1.2,4c0,1.7-0.4,3-1.1,4
	c-0.8,1-1.8,1.4-3.1,1.4c-0.7,0-1.4-0.2-2-0.5c-0.6-0.3-1-0.8-1.3-1.4h-0.1v5.2h-2.9V16.5h2.8v1.8h0.1c0.3-0.6,0.7-1.1,1.3-1.5
	C103.2,16.5,103.8,16.4,104.6,16.4z M103.6,24.9c0.7,0,1.3-0.3,1.7-0.8c0.4-0.6,0.6-1.3,0.6-2.3s-0.2-1.7-0.6-2.3
	c-0.4-0.6-1-0.8-1.7-0.8c-0.7,0-1.3,0.3-1.7,0.9c-0.4,0.6-0.6,1.3-0.6,2.3c0,0.9,0.2,1.7,0.6,2.3C102.3,24.6,102.9,24.9,103.6,24.9z
	 M119.7,24.6V27h-9.1V12.9h2.9v11.7H119.7z M125.2,25.1c0.6,0,1.2-0.2,1.6-0.5c0.4-0.4,0.7-0.8,0.7-1.4v-0.8l-2.2,0.1
	c-0.5,0-0.9,0.2-1.2,0.4c-0.3,0.2-0.4,0.5-0.4,0.9c0,0.4,0.1,0.7,0.4,0.9C124.3,25,124.7,25.1,125.2,25.1z M124.3,27.2
	c-1,0-1.8-0.3-2.5-0.9c-0.7-0.6-1-1.4-1-2.3c0-1,0.4-1.7,1.1-2.2c0.7-0.5,1.7-0.8,3-0.9l2.6-0.2V20c0-0.5-0.2-0.9-0.5-1.1
	c-0.3-0.3-0.7-0.4-1.3-0.4c-0.5,0-0.9,0.1-1.3,0.4c-0.3,0.2-0.5,0.6-0.6,0.9h-2.6c0.1-1,0.5-1.9,1.3-2.5c0.8-0.6,1.9-0.9,3.3-0.9
	c1.3,0,2.4,0.3,3.2,1c0.8,0.6,1.2,1.5,1.2,2.5V27h-2.8v-1.6h-0.1c-0.3,0.5-0.7,1-1.3,1.3C125.6,27,125,27.2,124.3,27.2z M132.1,27
	V16.5h2.8v1.9h0.1c0.3-0.7,0.7-1.2,1.2-1.5c0.6-0.4,1.2-0.5,2-0.5c1.2,0,2.1,0.3,2.7,1c0.6,0.7,0.9,1.7,0.9,2.9V27H139v-6.2
	c0-0.7-0.2-1.2-0.5-1.6c-0.3-0.4-0.8-0.6-1.4-0.6c-0.6,0-1.1,0.2-1.5,0.6c-0.4,0.4-0.6,1-0.6,1.7v6H132.1z M147.6,27.2
	c-1.3,0-2.3-0.5-3.1-1.5c-0.8-1-1.2-2.3-1.2-4c0-1.7,0.4-3,1.2-3.9c0.8-1,1.8-1.4,3.1-1.4c0.7,0,1.4,0.2,2,0.5
	c0.6,0.4,1,0.8,1.2,1.4h0.1v-5.4h2.9V27h-2.8v-1.8h0c-0.3,0.6-0.7,1.1-1.3,1.4C149,27,148.3,27.2,147.6,27.2z M148.5,18.7
	c-0.7,0-1.3,0.3-1.7,0.8c-0.4,0.6-0.6,1.3-0.6,2.3c0,1,0.2,1.7,0.6,2.3c0.4,0.6,1,0.8,1.7,0.8c0.7,0,1.3-0.3,1.7-0.8
	c0.4-0.6,0.6-1.3,0.6-2.3c0-1-0.2-1.7-0.6-2.3C149.8,18.9,149.2,18.7,148.5,18.7z M155.6,27V16.5h2.9V27H155.6z M158.1,14.9
	c-0.3,0.3-0.7,0.4-1.1,0.4c-0.4,0-0.8-0.1-1.1-0.4c-0.3-0.3-0.4-0.6-0.4-1c0-0.4,0.1-0.8,0.4-1c0.3-0.3,0.7-0.4,1.1-0.4
	c0.4,0,0.8,0.1,1.1,0.4c0.3,0.3,0.4,0.6,0.4,1C158.6,14.3,158.4,14.7,158.1,14.9z M160.4,27V16.5h2.8v1.9h0.1
	c0.3-0.7,0.7-1.2,1.2-1.5c0.6-0.4,1.2-0.5,2-0.5c1.2,0,2.1,0.3,2.7,1c0.6,0.7,0.9,1.7,0.9,2.9V27h-2.9v-6.2c0-0.7-0.2-1.2-0.5-1.6
	c-0.3-0.4-0.8-0.6-1.4-0.6c-0.6,0-1.1,0.2-1.5,0.6c-0.4,0.4-0.6,1-0.6,1.7v6H160.4z M176.7,24.8c0.7,0,1.3-0.3,1.7-0.8
	c0.4-0.5,0.6-1.3,0.6-2.2s-0.2-1.7-0.6-2.3c-0.4-0.6-1-0.8-1.7-0.8c-0.7,0-1.3,0.3-1.7,0.8c-0.4,0.6-0.6,1.3-0.6,2.3
	c0,1,0.2,1.7,0.6,2.2C175.5,24.5,176,24.8,176.7,24.8z M176.7,30.9c-1.4,0-2.5-0.3-3.4-0.9c-0.9-0.6-1.4-1.4-1.5-2.3h2.8
	c0.1,0.4,0.4,0.7,0.7,0.9c0.4,0.2,0.9,0.3,1.4,0.3c0.7,0,1.3-0.2,1.7-0.6c0.4-0.4,0.6-0.9,0.6-1.5v-1.8H179c-0.2,0.6-0.7,1-1.2,1.4
	c-0.6,0.3-1.2,0.5-2,0.5c-1.3,0-2.3-0.5-3.1-1.4c-0.8-0.9-1.2-2.2-1.2-3.8c0-1.7,0.4-3,1.2-3.9c0.8-1,1.8-1.4,3.1-1.4
	c0.7,0,1.4,0.2,2,0.5c0.6,0.4,1,0.8,1.3,1.5h0v-1.8h2.8v10.3c0,1.2-0.5,2.2-1.4,3C179.5,30.6,178.3,30.9,176.7,30.9z"/>
<g>
	<defs>
		<rect id="SVGID_1_" y="0" width="27" height="37"/>
	</defs>
	<clipPath id="SVGID_00000166659635831792026930000007500757697884332976_">
		<use xlink:href="#SVGID_1_"  style="overflow:visible;"/>
	</clipPath>
	<g style="clip-path:url(#SVGID_00000166659635831792026930000007500757697884332976_);">
		
			<linearGradient id="SVGID_00000075865487127344287260000013353122309143530379_" gradientUnits="userSpaceOnUse" x1="16.3245" y1="54.5966" x2="10.5019" y2="17.2378" gradientTransform="matrix(1 0 0 -1 0 37.8898)">
			<stop  offset="0" style="stop-color:#0096D9"/>
			<stop  offset="1" style="stop-color:#00C198"/>
		</linearGradient>
		<path style="fill:url(#SVGID_00000075865487127344287260000013353122309143530379_);" d="M20.2,0.5c-3.4-0.9-7-0.7-10.3,0.7
			C6.6,2.6,3.9,4.9,2.1,8c-1.8,3-2.5,6.6-2,10c0.5,3.5,2.1,6.7,4.6,9.2l0,0L22.6,9.5C23.3,8.8,23.8,8,24,7.1c0.2-0.9,0.2-1.9,0-2.8
			c-0.2-0.9-0.7-1.7-1.4-2.4C22,1.3,21.1,0.8,20.2,0.5L20.2,0.5z"/>
		
			<linearGradient id="SVGID_00000135672439851185540010000003610988519827305090_" gradientUnits="userSpaceOnUse" x1="9.2246" y1="24.3162" x2="18.5862" y2="5.5247" gradientTransform="matrix(1 0 0 -1 0 37.8898)">
			<stop  offset="0" style="stop-color:#002DD9"/>
			<stop  offset="1" style="stop-color:#00B2AB"/>
		</linearGradient>
		<path style="fill:url(#SVGID_00000135672439851185540010000003610988519827305090_);" d="M6.8,36.5c3.4,0.9,7,0.7,10.3-0.7
			c3.3-1.3,6-3.7,7.8-6.8c1.8-3,2.5-6.6,2-10c-0.5-3.5-2.1-6.7-4.6-9.2L4.4,27.5C3.7,28.2,3.2,29,3,29.9c-0.2,0.9-0.2,1.9,0,2.8
			c0.2,0.9,0.7,1.7,1.4,2.4C5,35.7,5.9,36.2,6.8,36.5L6.8,36.5z"/>
		
			<linearGradient id="SVGID_00000104695066183399875600000011175490652614994586_" gradientUnits="userSpaceOnUse" x1="23.5392" y1="41.4283" x2="5.8146" y2="-0.1674" gradientTransform="matrix(1 0 0 -1 0 37.8898)">
			<stop  offset="0" style="stop-color:#3482C0"/>
			<stop  offset="0.45" style="stop-color:#96BEDE"/>
			<stop  offset="0.83" style="stop-color:#E1EDF6"/>
			<stop  offset="1" style="stop-color:#FFFFFF"/>
		</linearGradient>
		<path style="fill:url(#SVGID_00000104695066183399875600000011175490652614994586_);" d="M22.3,9.8L4.4,27.5
			C3.7,28.2,3.2,29,3,29.9c-0.2,0.9-0.2,1.9,0,2.8c0.2,0.9,0.7,1.7,1.4,2.4c0.7,0.7,1.5,1.1,2.4,1.4c1.9,0.5,3.9,0.7,5.9,0.4
			C4.8,29.4,22.3,9.8,22.3,9.8z"/>
		<g>
			
				<linearGradient id="SVGID_00000091704880821860435220000014017014722568490164_" gradientUnits="userSpaceOnUse" x1="411.7667" y1="579.0234" x2="-1081.8643" y2="-1527.2119" gradientTransform="matrix(1 0 0 -1 0 37.8898)">
				<stop  offset="0" style="stop-color:#3482C0"/>
				<stop  offset="0.45" style="stop-color:#96BEDE"/>
				<stop  offset="0.83" style="stop-color:#E1EDF6"/>
				<stop  offset="1" style="stop-color:#FFFFFF"/>
			</linearGradient>
			<path style="fill:url(#SVGID_00000091704880821860435220000014017014722568490164_);" d="M6.5,36.4c-2.5-7.8,12.7-23.5,15.4-26.1
				L4.4,27.5C3.7,28.2,3.3,29,3,29.8c-0.3,0.9-0.3,1.8-0.1,2.7c0.2,0.9,0.6,1.7,1.3,2.4C4.8,35.6,5.6,36.1,6.5,36.4L6.5,36.4z"/>
			
				<linearGradient id="SVGID_00000159452313511221236040000017148573424053445523_" gradientUnits="userSpaceOnUse" x1="25.6206" y1="34.6487" x2="10.5425" y2="5.2043" gradientTransform="matrix(1 0 0 -1 0 37.8898)">
				<stop  offset="0" style="stop-color:#569FA1"/>
				<stop  offset="0.36" style="stop-color:#97C4C5"/>
				<stop  offset="0.8" style="stop-color:#E2EEEF"/>
				<stop  offset="1" style="stop-color:#FFFFFF"/>
			</linearGradient>
			<path style="fill:url(#SVGID_00000159452313511221236040000017148573424053445523_);" d="M22.2,9.9C22.2,9.9,22.2,9.8,22.2,9.9
				L22.2,9.9L22.2,9.9z"/>
		</g>
		
			<radialGradient id="SVGID_00000171684107561494777260000016632525518873909933_" cx="-192.8105" cy="425.2911" r="1" gradientTransform="matrix(27.8184 0 0 -27.5367 5385.2739 11743.4961)" gradientUnits="userSpaceOnUse">
			<stop  offset="0" style="stop-color:#FFFF00"/>
			<stop  offset="1" style="stop-color:#000000"/>
		</radialGradient>
		<path style="fill:url(#SVGID_00000171684107561494777260000016632525518873909933_);" d="M23.9,7.4L4.7,27.2L22.6,9.5
			C23.2,8.9,23.7,8.2,23.9,7.4L23.9,7.4z"/>
	</g>
</g>
</svg>
